<svg width="784" height="133" viewBox="0 0 784 133" fill="none" xmlns="http://www.w3.org/2000/svg">
<path d="M169.16 38.32C176.264 38.32 182.472 39.76 187.784 42.64C193.16 45.456 197.288 49.424 200.168 54.544C203.048 59.664 204.488 65.52 204.488 72.112C204.488 78.64 203.016 84.464 200.072 89.584C197.192 94.704 193.064 98.736 187.688 101.68C182.376 104.56 176.2 106 169.16 106H142.376V38.32H169.16ZM167.72 89.392C173.224 89.392 177.544 87.888 180.68 84.88C183.816 81.872 185.384 77.616 185.384 72.112C185.384 66.544 183.816 62.256 180.68 59.248C177.544 56.176 173.224 54.64 167.72 54.64H161.192V89.392H167.72ZM206.058 79.024C206.058 73.456 207.05 68.592 209.034 64.432C211.082 60.272 213.834 57.072 217.29 54.832C220.81 52.592 224.714 51.472 229.002 51.472C232.714 51.472 235.914 52.208 238.602 53.68C241.29 55.152 243.37 57.136 244.842 59.632V52.144H263.658V106H244.842V98.512C243.37 101.008 241.258 102.992 238.506 104.464C235.818 105.936 232.65 106.672 229.002 106.672C224.714 106.672 220.81 105.552 217.29 103.312C213.834 101.072 211.082 97.872 209.034 93.712C207.05 89.488 206.058 84.592 206.058 79.024ZM244.842 79.024C244.842 75.568 243.882 72.848 241.962 70.864C240.106 68.88 237.802 67.888 235.05 67.888C232.234 67.888 229.898 68.88 228.042 70.864C226.186 72.784 225.258 75.504 225.258 79.024C225.258 82.48 226.186 85.232 228.042 87.28C229.898 89.264 232.234 90.256 235.05 90.256C237.802 90.256 240.106 89.264 241.962 87.28C243.882 85.296 244.842 82.544 244.842 79.024ZM293.484 106.672C288.62 106.672 284.268 105.872 280.428 104.272C276.652 102.608 273.644 100.368 271.404 97.552C269.228 94.672 268.012 91.44 267.756 87.856H285.996C286.252 89.584 287.052 90.928 288.396 91.888C289.74 92.848 291.404 93.328 293.388 93.328C294.924 93.328 296.14 93.008 297.036 92.368C297.932 91.728 298.38 90.896 298.38 89.872C298.38 88.528 297.644 87.536 296.172 86.896C294.7 86.256 292.268 85.552 288.876 84.784C285.036 84.016 281.836 83.152 279.276 82.192C276.716 81.232 274.476 79.664 272.556 77.488C270.7 75.312 269.772 72.368 269.772 68.656C269.772 65.456 270.636 62.576 272.364 60.016C274.092 57.392 276.62 55.312 279.948 53.776C283.34 52.24 287.404 51.472 292.14 51.472C299.18 51.472 304.716 53.2 308.748 56.656C312.78 60.112 315.116 64.656 315.756 70.288H298.764C298.444 68.56 297.676 67.248 296.46 66.352C295.308 65.392 293.74 64.912 291.756 64.912C290.22 64.912 289.036 65.2 288.204 65.776C287.436 66.352 287.052 67.152 287.052 68.176C287.052 69.456 287.788 70.448 289.26 71.152C290.732 71.792 293.1 72.464 296.364 73.168C300.268 74 303.5 74.928 306.06 75.952C308.684 76.976 310.956 78.64 312.876 80.944C314.86 83.184 315.852 86.256 315.852 90.16C315.852 93.296 314.924 96.112 313.068 98.608C311.276 101.104 308.684 103.088 305.292 104.56C301.964 105.968 298.028 106.672 293.484 106.672ZM356.686 51.664C362.83 51.664 367.694 53.744 371.278 57.904C374.926 62 376.75 67.568 376.75 74.608V106H357.934V77.104C357.934 74.032 357.134 71.632 355.534 69.904C353.934 68.112 351.79 67.216 349.102 67.216C346.286 67.216 344.078 68.112 342.478 69.904C340.878 71.632 340.078 74.032 340.078 77.104V106H321.262V34.96H340.078V59.824C341.742 57.392 343.982 55.44 346.798 53.968C349.678 52.432 352.974 51.664 356.686 51.664ZM429.123 38.32V53.296H402.051V65.2H422.019V79.504H402.051V106H383.235V38.32H429.123ZM452.023 61.648C454.135 58.576 456.695 56.144 459.703 54.352C462.711 52.56 465.943 51.664 469.399 51.664V71.728H464.119C460.023 71.728 456.983 72.528 454.999 74.128C453.015 75.728 452.023 78.512 452.023 82.48V106H433.207V52.144H452.023V61.648ZM523.761 78.448C523.761 79.92 523.665 81.392 523.473 82.864H487.857C488.049 85.808 488.849 88.016 490.257 89.488C491.729 90.896 493.585 91.6 495.825 91.6C498.961 91.6 501.201 90.192 502.545 87.376H522.609C521.777 91.088 520.145 94.416 517.713 97.36C515.345 100.24 512.337 102.512 508.689 104.176C505.041 105.84 501.009 106.672 496.593 106.672C491.281 106.672 486.545 105.552 482.385 103.312C478.289 101.072 475.057 97.872 472.689 93.712C470.385 89.552 469.233 84.656 469.233 79.024C469.233 73.392 470.385 68.528 472.689 64.432C474.993 60.272 478.193 57.072 482.289 54.832C486.449 52.592 491.217 51.472 496.593 51.472C501.905 51.472 506.609 52.56 510.705 54.736C514.801 56.912 518.001 60.048 520.305 64.144C522.609 68.176 523.761 72.944 523.761 78.448ZM504.561 73.744C504.561 71.44 503.793 69.648 502.257 68.368C500.721 67.024 498.801 66.352 496.497 66.352C494.193 66.352 492.305 66.992 490.833 68.272C489.361 69.488 488.401 71.312 487.953 73.744H504.561ZM579.077 78.448C579.077 79.92 578.981 81.392 578.789 82.864H543.173C543.365 85.808 544.165 88.016 545.573 89.488C547.045 90.896 548.901 91.6 551.141 91.6C554.277 91.6 556.517 90.192 557.861 87.376H577.925C577.093 91.088 575.461 94.416 573.029 97.36C570.661 100.24 567.653 102.512 564.005 104.176C560.357 105.84 556.325 106.672 551.909 106.672C546.597 106.672 541.861 105.552 537.701 103.312C533.605 101.072 530.373 97.872 528.005 93.712C525.701 89.552 524.549 84.656 524.549 79.024C524.549 73.392 525.701 68.528 528.005 64.432C530.309 60.272 533.509 57.072 537.605 54.832C541.765 52.592 546.533 51.472 551.909 51.472C557.221 51.472 561.925 52.56 566.021 54.736C570.117 56.912 573.317 60.048 575.621 64.144C577.925 68.176 579.077 72.944 579.077 78.448ZM559.877 73.744C559.877 71.44 559.109 69.648 557.573 68.368C556.037 67.024 554.117 66.352 551.813 66.352C549.509 66.352 547.621 66.992 546.149 68.272C544.677 69.488 543.717 71.312 543.269 73.744H559.877ZM601.753 34.96V106H582.937V34.96H601.753ZM605.557 79.024C605.557 73.456 606.549 68.592 608.533 64.432C610.581 60.272 613.333 57.072 616.789 54.832C620.309 52.592 624.213 51.472 628.501 51.472C632.213 51.472 635.413 52.208 638.101 53.68C640.789 55.152 642.869 57.136 644.341 59.632V52.144H663.157V106H644.341V98.512C642.869 101.008 640.757 102.992 638.005 104.464C635.317 105.936 632.149 106.672 628.501 106.672C624.213 106.672 620.309 105.552 616.789 103.312C613.333 101.072 610.581 97.872 608.533 93.712C606.549 89.488 605.557 84.592 605.557 79.024ZM644.341 79.024C644.341 75.568 643.381 72.848 641.461 70.864C639.605 68.88 637.301 67.888 634.549 67.888C631.733 67.888 629.397 68.88 627.541 70.864C625.685 72.784 624.757 75.504 624.757 79.024C624.757 82.48 625.685 85.232 627.541 87.28C629.397 89.264 631.733 90.256 634.549 90.256C637.301 90.256 639.605 89.264 641.461 87.28C643.381 85.296 644.341 82.544 644.341 79.024Z" fill="white"/>
<path fill-rule="evenodd" clip-rule="evenodd" d="M8.84159 26.9171H67.5174C73.7742 26.9171 82.2193 30.6591 88.9979 37.902C95.6674 45.0282 100.407 55.2312 99.6755 67.6738C98.5972 86.0056 86.4713 97.4784 75.8277 103.765C70.1948 107.093 63.3494 108.099 56.0432 108.099H35.3663C33.1467 108.099 31.3474 109.898 31.3474 112.118C31.3474 114.337 33.1467 116.137 35.3663 116.137H56.0432C63.927 116.137 72.4695 115.084 79.9156 110.686C91.7188 103.714 106.399 90.2461 107.699 68.1458C108.575 53.26 102.866 40.9571 94.8665 32.4097C86.9762 23.9789 76.5325 18.8793 67.5174 18.8793H8.03781C4.04258 18.8793 0.803802 22.1181 0.803802 26.1133V127.389C0.803802 129.609 2.60312 131.408 4.8227 131.408C7.04227 131.408 8.84159 129.609 8.84159 127.389V26.9171Z" fill="white"/>
<path fill-rule="evenodd" clip-rule="evenodd" d="M0 6.01889C0 3.79932 1.79932 2 4.01889 2H63.4985L63.5585 2.00045C73.2204 2.14465 87.6943 5.35212 100.181 14.5367C112.83 23.8408 123.224 39.1353 124.579 62.8579C125.842 84.9497 117.491 100.925 105.975 111.917C94.5814 122.793 80.2052 128.704 69.2164 131.203C65.5968 132.026 61.981 132.212 58.5736 132.212H20.0945C17.8749 132.212 16.0756 130.413 16.0756 128.193V38.17C16.0756 35.9505 17.8749 34.1512 20.0945 34.1512C22.314 34.1512 24.1134 35.9505 24.1134 38.17V124.174H58.5736C61.7241 124.174 64.6587 123.996 67.4338 123.365C77.411 121.096 90.3453 115.725 100.425 106.103C110.384 96.5968 117.671 82.8584 116.554 63.3165C115.338 42.0275 106.173 28.9218 95.4185 21.0116C84.5148 12.9914 71.7578 10.1677 63.4678 10.0378H4.01889C1.79932 10.0378 0 8.23847 0 6.01889Z" fill="white"/>
<path fill-rule="evenodd" clip-rule="evenodd" d="M32.1512 40.5813C32.1512 37.4739 34.6703 34.9549 37.7777 34.9549H61.3299L61.5708 34.9841C66.6347 35.5979 73.461 37.866 79.0987 42.775C84.8655 47.7965 89.2195 55.4518 89.2195 66.3023C89.2195 85.0432 75.3783 94.3159 66.5819 97.7308C63.2668 99.0177 59.8425 99.2572 56.8521 99.2572H37.7777C34.6703 99.2572 32.1512 96.7381 32.1512 93.6307V40.5813ZM40.189 42.9927V91.2194H56.8521C59.4917 91.2194 61.7398 90.9883 63.6731 90.2378C71.0766 87.3637 81.1817 80.2175 81.1817 66.3023C81.1817 57.862 77.8998 52.389 73.8204 48.8368C69.6964 45.2458 64.5914 43.4926 60.8333 42.9927H40.189Z" fill="white"/>
</svg>
