<svg width="788" height="134" viewBox="0 0 788 134" fill="none" xmlns="http://www.w3.org/2000/svg">
<path d="M173.16 38.32C180.264 38.32 186.472 39.76 191.784 42.64C197.16 45.456 201.288 49.424 204.168 54.544C207.048 59.664 208.488 65.52 208.488 72.112C208.488 78.64 207.016 84.464 204.072 89.584C201.192 94.704 197.064 98.736 191.688 101.68C186.376 104.56 180.2 106 173.16 106H146.376V38.32H173.16ZM171.72 89.392C177.224 89.392 181.544 87.888 184.68 84.88C187.816 81.872 189.384 77.616 189.384 72.112C189.384 66.544 187.816 62.256 184.68 59.248C181.544 56.176 177.224 54.64 171.72 54.64H165.192V89.392H171.72ZM210.058 79.024C210.058 73.456 211.05 68.592 213.034 64.432C215.082 60.272 217.834 57.072 221.29 54.832C224.81 52.592 228.714 51.472 233.002 51.472C236.714 51.472 239.914 52.208 242.602 53.68C245.29 55.152 247.37 57.136 248.842 59.632V52.144H267.658V106H248.842V98.512C247.37 101.008 245.258 102.992 242.506 104.464C239.818 105.936 236.65 106.672 233.002 106.672C228.714 106.672 224.81 105.552 221.29 103.312C217.834 101.072 215.082 97.872 213.034 93.712C211.05 89.488 210.058 84.592 210.058 79.024ZM248.842 79.024C248.842 75.568 247.882 72.848 245.962 70.864C244.106 68.88 241.802 67.888 239.05 67.888C236.234 67.888 233.898 68.88 232.042 70.864C230.186 72.784 229.258 75.504 229.258 79.024C229.258 82.48 230.186 85.232 232.042 87.28C233.898 89.264 236.234 90.256 239.05 90.256C241.802 90.256 244.106 89.264 245.962 87.28C247.882 85.296 248.842 82.544 248.842 79.024ZM297.484 106.672C292.62 106.672 288.268 105.872 284.428 104.272C280.652 102.608 277.644 100.368 275.404 97.552C273.228 94.672 272.012 91.44 271.756 87.856H289.996C290.252 89.584 291.052 90.928 292.396 91.888C293.74 92.848 295.404 93.328 297.388 93.328C298.924 93.328 300.14 93.008 301.036 92.368C301.932 91.728 302.38 90.896 302.38 89.872C302.38 88.528 301.644 87.536 300.172 86.896C298.7 86.256 296.268 85.552 292.876 84.784C289.036 84.016 285.836 83.152 283.276 82.192C280.716 81.232 278.476 79.664 276.556 77.488C274.7 75.312 273.772 72.368 273.772 68.656C273.772 65.456 274.636 62.576 276.364 60.016C278.092 57.392 280.62 55.312 283.948 53.776C287.34 52.24 291.404 51.472 296.14 51.472C303.18 51.472 308.716 53.2 312.748 56.656C316.78 60.112 319.116 64.656 319.756 70.288H302.764C302.444 68.56 301.676 67.248 300.46 66.352C299.308 65.392 297.74 64.912 295.756 64.912C294.22 64.912 293.036 65.2 292.204 65.776C291.436 66.352 291.052 67.152 291.052 68.176C291.052 69.456 291.788 70.448 293.26 71.152C294.732 71.792 297.1 72.464 300.364 73.168C304.268 74 307.5 74.928 310.06 75.952C312.684 76.976 314.956 78.64 316.876 80.944C318.86 83.184 319.852 86.256 319.852 90.16C319.852 93.296 318.924 96.112 317.068 98.608C315.276 101.104 312.684 103.088 309.292 104.56C305.964 105.968 302.028 106.672 297.484 106.672ZM360.686 51.664C366.83 51.664 371.694 53.744 375.278 57.904C378.926 62 380.75 67.568 380.75 74.608V106H361.934V77.104C361.934 74.032 361.134 71.632 359.534 69.904C357.934 68.112 355.79 67.216 353.102 67.216C350.286 67.216 348.078 68.112 346.478 69.904C344.878 71.632 344.078 74.032 344.078 77.104V106H325.262V34.96H344.078V59.824C345.742 57.392 347.982 55.44 350.798 53.968C353.678 52.432 356.974 51.664 360.686 51.664ZM433.123 38.32V53.296H406.051V65.2H426.019V79.504H406.051V106H387.235V38.32H433.123ZM456.023 61.648C458.135 58.576 460.695 56.144 463.703 54.352C466.711 52.56 469.943 51.664 473.399 51.664V71.728H468.119C464.023 71.728 460.983 72.528 458.999 74.128C457.015 75.728 456.023 78.512 456.023 82.48V106H437.207V52.144H456.023V61.648ZM527.761 78.448C527.761 79.92 527.665 81.392 527.473 82.864H491.857C492.049 85.808 492.849 88.016 494.257 89.488C495.729 90.896 497.585 91.6 499.825 91.6C502.961 91.6 505.201 90.192 506.545 87.376H526.609C525.777 91.088 524.145 94.416 521.713 97.36C519.345 100.24 516.337 102.512 512.689 104.176C509.041 105.84 505.009 106.672 500.593 106.672C495.281 106.672 490.545 105.552 486.385 103.312C482.289 101.072 479.057 97.872 476.689 93.712C474.385 89.552 473.233 84.656 473.233 79.024C473.233 73.392 474.385 68.528 476.689 64.432C478.993 60.272 482.193 57.072 486.289 54.832C490.449 52.592 495.217 51.472 500.593 51.472C505.905 51.472 510.609 52.56 514.705 54.736C518.801 56.912 522.001 60.048 524.305 64.144C526.609 68.176 527.761 72.944 527.761 78.448ZM508.561 73.744C508.561 71.44 507.793 69.648 506.257 68.368C504.721 67.024 502.801 66.352 500.497 66.352C498.193 66.352 496.305 66.992 494.833 68.272C493.361 69.488 492.401 71.312 491.953 73.744H508.561ZM583.077 78.448C583.077 79.92 582.981 81.392 582.789 82.864H547.173C547.365 85.808 548.165 88.016 549.573 89.488C551.045 90.896 552.901 91.6 555.141 91.6C558.277 91.6 560.517 90.192 561.861 87.376H581.925C581.093 91.088 579.461 94.416 577.029 97.36C574.661 100.24 571.653 102.512 568.005 104.176C564.357 105.84 560.325 106.672 555.909 106.672C550.597 106.672 545.861 105.552 541.701 103.312C537.605 101.072 534.373 97.872 532.005 93.712C529.701 89.552 528.549 84.656 528.549 79.024C528.549 73.392 529.701 68.528 532.005 64.432C534.309 60.272 537.509 57.072 541.605 54.832C545.765 52.592 550.533 51.472 555.909 51.472C561.221 51.472 565.925 52.56 570.021 54.736C574.117 56.912 577.317 60.048 579.621 64.144C581.925 68.176 583.077 72.944 583.077 78.448ZM563.877 73.744C563.877 71.44 563.109 69.648 561.573 68.368C560.037 67.024 558.117 66.352 555.813 66.352C553.509 66.352 551.621 66.992 550.149 68.272C548.677 69.488 547.717 71.312 547.269 73.744H563.877ZM605.753 34.96V106H586.937V34.96H605.753ZM609.557 79.024C609.557 73.456 610.549 68.592 612.533 64.432C614.581 60.272 617.333 57.072 620.789 54.832C624.309 52.592 628.213 51.472 632.501 51.472C636.213 51.472 639.413 52.208 642.101 53.68C644.789 55.152 646.869 57.136 648.341 59.632V52.144H667.157V106H648.341V98.512C646.869 101.008 644.757 102.992 642.005 104.464C639.317 105.936 636.149 106.672 632.501 106.672C628.213 106.672 624.309 105.552 620.789 103.312C617.333 101.072 614.581 97.872 612.533 93.712C610.549 89.488 609.557 84.592 609.557 79.024ZM648.341 79.024C648.341 75.568 647.381 72.848 645.461 70.864C643.605 68.88 641.301 67.888 638.549 67.888C635.733 67.888 633.397 68.88 631.541 70.864C629.685 72.784 628.757 75.504 628.757 79.024C628.757 82.48 629.685 85.232 631.541 87.28C633.397 89.264 635.733 90.256 638.549 90.256C641.301 90.256 643.605 89.264 645.461 87.28C647.381 85.296 648.341 82.544 648.341 79.024Z" fill="#352F44"/>
<path fill-rule="evenodd" clip-rule="evenodd" d="M8.84159 27.9171H67.5174C73.7742 27.9171 82.2193 31.6591 88.9979 38.902C95.6674 46.0282 100.407 56.2312 99.6755 68.6738C98.5972 87.0056 86.4713 98.4784 75.8277 104.765C70.1948 108.093 63.3494 109.099 56.0432 109.099H35.3663C33.1467 109.099 31.3474 110.898 31.3474 113.118C31.3474 115.337 33.1467 117.137 35.3663 117.137H56.0432C63.927 117.137 72.4695 116.084 79.9156 111.686C91.7188 104.714 106.399 91.2461 107.699 69.1458C108.575 54.26 102.866 41.9571 94.8665 33.4097C86.9762 24.9789 76.5325 19.8793 67.5174 19.8793H8.03781C4.04258 19.8793 0.803802 23.1181 0.803802 27.1133V128.389C0.803802 130.609 2.60312 132.408 4.8227 132.408C7.04227 132.408 8.84159 130.609 8.84159 128.389V27.9171Z" fill="#352F44"/>
<path fill-rule="evenodd" clip-rule="evenodd" d="M0 7.01889C0 4.79932 1.79932 3 4.01889 3H63.4985L63.5585 3.00045C73.2204 3.14465 87.6943 6.35212 100.181 15.5367C112.83 24.8408 123.224 40.1353 124.579 63.8579C125.842 85.9497 117.491 101.925 105.975 112.917C94.5814 123.793 80.2052 129.704 69.2164 132.203C65.5968 133.026 61.981 133.212 58.5736 133.212H20.0945C17.8749 133.212 16.0756 131.413 16.0756 129.193V39.17C16.0756 36.9505 17.8749 35.1512 20.0945 35.1512C22.314 35.1512 24.1134 36.9505 24.1134 39.17V125.174H58.5736C61.7241 125.174 64.6587 124.996 67.4338 124.365C77.411 122.096 90.3453 116.725 100.425 107.103C110.384 97.5968 117.671 83.8584 116.554 64.3165C115.338 43.0275 106.173 29.9218 95.4185 22.0116C84.5148 13.9914 71.7578 11.1677 63.4678 11.0378H4.01889C1.79932 11.0378 0 9.23847 0 7.01889Z" fill="#352F44"/>
<path fill-rule="evenodd" clip-rule="evenodd" d="M32.1512 41.5813C32.1512 38.4739 34.6703 35.9549 37.7777 35.9549H61.3299L61.5708 35.9841C66.6347 36.5979 73.461 38.866 79.0987 43.775C84.8655 48.7965 89.2195 56.4518 89.2195 67.3023C89.2195 86.0432 75.3783 95.3159 66.5819 98.7308C63.2668 100.018 59.8425 100.257 56.8521 100.257H37.7777C34.6703 100.257 32.1512 97.7382 32.1512 94.6307V41.5813ZM40.189 43.9927V92.2194H56.8521C59.4917 92.2194 61.7398 91.9883 63.6731 91.2378C71.0766 88.3637 81.1817 81.2175 81.1817 67.3023C81.1817 58.862 77.8998 53.389 73.8204 49.8368C69.6964 46.2458 64.5914 44.4926 60.8333 43.9927H40.189Z" fill="#352F44"/>
</svg>
